{
    "asset" : {
        "generator" : "Khronos glTF Blender I/O v3.4.50",
        "version" : "2.0"
    },
    "extensionsUsed" : [
        "KHR_materials_specular"
    ],
    "scene" : 0,
    "scenes" : [
        {
            "name" : "Scene",
            "nodes" : [
                0
            ]
        }
    ],
    "nodes" : [
        {
            "mesh" : 0,
            "name" : "Free House OBJ",
            "rotation" : [
                0.008085725829005241,
                -0.001176844583824277,
                -0.0030365572310984135,
                0.9999619722366333
            ],
            "scale" : [
                0.0012227079132571816,
                0.0012227079132571816,
                0.0012227079132571816
            ]
        }
    ],
    "materials" : [
        {
            "doubleSided" : true,
            "extensions" : {
                "KHR_materials_specular" : {
                    "specularColorFactor" : [
                        0.18000000715255735,
                        0.18000000715255735,
                        0.18000000715255735
                    ]
                }
            },
            "name" : "HOUSE_COMPLETE",
            "pbrMetallicRoughness" : {
                "baseColorFactor" : [
                    0.9019610285758972,
                    0.9019610285758972,
                    0.9019610285758972,
                    1
                ],
                "metallicFactor" : 0,
                "roughnessFactor" : 0.8999999761581421
            }
        },
        {
            "doubleSided" : true,
            "extensions" : {
                "KHR_materials_specular" : {
                    "specularColorFactor" : [
                        0,
                        0,
                        0
                    ]
                }
            },
            "name" : "ROOF",
            "pbrMetallicRoughness" : {
                "baseColorFactor" : [
                    0.3921569883823395,
                    0.3921569883823395,
                    0.3921569883823395,
                    1
                ],
                "metallicFactor" : 0,
                "roughnessFactor" : 0.8999999761581421
            }
        },
        {
            "doubleSided" : true,
            "extensions" : {
                "KHR_materials_specular" : {
                    "specularColorFactor" : [
                        0.540000021457672,
                        0.540000021457672,
                        0.540000021457672
                    ]
                }
            },
            "name" : "FRAME",
            "pbrMetallicRoughness" : {
                "baseColorFactor" : [
                    0.9490200281143188,
                    0.9490200281143188,
                    0.9490200281143188,
                    1
                ],
                "metallicFactor" : 0,
                "roughnessFactor" : 0.8999999761581421
            }
        },
        {
            "doubleSided" : true,
            "extensions" : {
                "KHR_materials_specular" : {
                    "specularColorFactor" : [
                        0.899999976158142,
                        0.899999976158142,
                        0.899999976158142
                    ]
                }
            },
            "name" : "GLASS",
            "pbrMetallicRoughness" : {
                "baseColorFactor" : [
                    0,
                    0,
                    0,
                    0.33000001311302185
                ],
                "metallicFactor" : 0,
                "roughnessFactor" : 0.8267949223518372
            }
        }
    ],
    "meshes" : [
        {
            "name" : "Free House OBJ",
            "primitives" : [
                {
                    "attributes" : {
                        "POSITION" : 0,
                        "TEXCOORD_0" : 1,
                        "NORMAL" : 2
                    },
                    "indices" : 3,
                    "material" : 0
                },
                {
                    "attributes" : {
                        "POSITION" : 4,
                        "TEXCOORD_0" : 5,
                        "NORMAL" : 6
                    },
                    "indices" : 7,
                    "material" : 1
                },
                {
                    "attributes" : {
                        "POSITION" : 8,
                        "TEXCOORD_0" : 9,
                        "NORMAL" : 10
                    },
                    "indices" : 11,
                    "material" : 2
                },
                {
                    "attributes" : {
                        "POSITION" : 12,
                        "TEXCOORD_0" : 13,
                        "NORMAL" : 14
                    },
                    "indices" : 15,
                    "material" : 3
                }
            ]
        }
    ],
    "accessors" : [
        {
            "bufferView" : 0,
            "componentType" : 5126,
            "count" : 3330,
            "max" : [
                6593.32275390625,
                7245.927734375,
                6862.4501953125
            ],
            "min" : [
                -6525.564453125,
                -0.00024399999529123306,
                -9004.5517578125
            ],
            "type" : "VEC3"
        },
        {
            "bufferView" : 1,
            "componentType" : 5126,
            "count" : 3330,
            "type" : "VEC2"
        },
        {
            "bufferView" : 2,
            "componentType" : 5126,
            "count" : 3330,
            "type" : "VEC3"
        },
        {
            "bufferView" : 3,
            "componentType" : 5123,
            "count" : 7392,
            "type" : "SCALAR"
        },
        {
            "bufferView" : 4,
            "componentType" : 5126,
            "count" : 16,
            "max" : [
                6570,
                6551.9052734375,
                5552.41650390625
            ],
            "min" : [
                -6500,
                2806.513427734375,
                -7049.06494140625
            ],
            "type" : "VEC3"
        },
        {
            "bufferView" : 5,
            "componentType" : 5126,
            "count" : 16,
            "type" : "VEC2"
        },
        {
            "bufferView" : 6,
            "componentType" : 5126,
            "count" : 16,
            "type" : "VEC3"
        },
        {
            "bufferView" : 7,
            "componentType" : 5123,
            "count" : 24,
            "type" : "SCALAR"
        },
        {
            "bufferView" : 8,
            "componentType" : 5126,
            "count" : 12784,
            "max" : [
                6184.443359375,
                5314.05224609375,
                5009.8330078125
            ],
            "min" : [
                -6109.45068359375,
                349.3140563964844,
                -6559.90234375
            ],
            "type" : "VEC3"
        },
        {
            "bufferView" : 9,
            "componentType" : 5126,
            "count" : 12784,
            "type" : "VEC2"
        },
        {
            "bufferView" : 10,
            "componentType" : 5126,
            "count" : 12784,
            "type" : "VEC3"
        },
        {
            "bufferView" : 11,
            "componentType" : 5123,
            "count" : 23316,
            "type" : "SCALAR"
        },
        {
            "bufferView" : 12,
            "componentType" : 5126,
            "count" : 2063,
            "max" : [
                6084.8935546875,
                5146.02978515625,
                4955.46875
            ],
            "min" : [
                -6009.90087890625,
                374.6834716796875,
                -6505.919921875
            ],
            "type" : "VEC3"
        },
        {
            "bufferView" : 13,
            "componentType" : 5126,
            "count" : 2063,
            "type" : "VEC2"
        },
        {
            "bufferView" : 14,
            "componentType" : 5126,
            "count" : 2063,
            "type" : "VEC3"
        },
        {
            "bufferView" : 15,
            "componentType" : 5123,
            "count" : 3432,
            "type" : "SCALAR"
        }
    ],
    "bufferViews" : [
        {
            "buffer" : 0,
            "byteLength" : 39960,
            "byteOffset" : 0,
            "target" : 34962
        },
        {
            "buffer" : 0,
            "byteLength" : 26640,
            "byteOffset" : 39960,
            "target" : 34962
        },
        {
            "buffer" : 0,
            "byteLength" : 39960,
            "byteOffset" : 66600,
            "target" : 34962
        },
        {
            "buffer" : 0,
            "byteLength" : 14784,
            "byteOffset" : 106560,
            "target" : 34963
        },
        {
            "buffer" : 0,
            "byteLength" : 192,
            "byteOffset" : 121344,
            "target" : 34962
        },
        {
            "buffer" : 0,
            "byteLength" : 128,
            "byteOffset" : 121536,
            "target" : 34962
        },
        {
            "buffer" : 0,
            "byteLength" : 192,
            "byteOffset" : 121664,
            "target" : 34962
        },
        {
            "buffer" : 0,
            "byteLength" : 48,
            "byteOffset" : 121856,
            "target" : 34963
        },
        {
            "buffer" : 0,
            "byteLength" : 153408,
            "byteOffset" : 121904,
            "target" : 34962
        },
        {
            "buffer" : 0,
            "byteLength" : 102272,
            "byteOffset" : 275312,
            "target" : 34962
        },
        {
            "buffer" : 0,
            "byteLength" : 153408,
            "byteOffset" : 377584,
            "target" : 34962
        },
        {
            "buffer" : 0,
            "byteLength" : 46632,
            "byteOffset" : 530992,
            "target" : 34963
        },
        {
            "buffer" : 0,
            "byteLength" : 24756,
            "byteOffset" : 577624,
            "target" : 34962
        },
        {
            "buffer" : 0,
            "byteLength" : 16504,
            "byteOffset" : 602380,
            "target" : 34962
        },
        {
            "buffer" : 0,
            "byteLength" : 24756,
            "byteOffset" : 618884,
            "target" : 34962
        },
        {
            "buffer" : 0,
            "byteLength" : 6864,
            "byteOffset" : 643640,
            "target" : 34963
        }
    ],
    "buffers" : [
        {
            "byteLength" : 650504,
            "uri" : "data:application/octet-stream;base64,"
        }
    ]
}
