{
    "asset" : {
        "generator" : "Khronos glTF Blender I/O v3.4.50",
        "version" : "2.0"
    },
    "scene" : 0,
    "scenes" : [
        {
            "name" : "Scene",
            "nodes" : [
                0
            ]
        }
    ],
    "nodes" : [
        {
            "mesh" : 0,
            "name" : "Earth",
            "rotation" : [
                0,
                0.7071066498756409,
                -0.70710688829422,
                5.3385068810030134e-08
            ],
            "scale" : [
                2.5466504096984863,
                2.5466504096984863,
                2.5466504096984863
            ]
        }
    ],
    "materials" : [
        {
            "doubleSided" : true,
            "name" : "Earth_MATERIAL",
            "pbrMetallicRoughness" : {
                "baseColorFactor" : [
                    0.800000011920929,
                    0.800000011920929,
                    0.800000011920929,
                    1
                ],
                "metallicFactor" : 0,
                "roughnessFactor" : 0.5
            }
        }
    ],
    "meshes" : [
        {
            "name" : "Earth",
            "primitives" : [
                {
                    "attributes" : {
                        "POSITION" : 0,
                        "TEXCOORD_0" : 1,
                        "NORMAL" : 2
                    },
                    "indices" : 3,
                    "material" : 0
                }
            ]
        }
    ],
    "accessors" : [
        {
            "bufferView" : 0,
            "componentType" : 5126,
            "count" : 1977,
            "max" : [
                2.4578800201416016,
                2.4578299522399902,
                2.4872782230377197
            ],
            "min" : [
                -2.4578800201416016,
                -2.4578299522399902,
                -2.487278461456299
            ],
            "type" : "VEC3"
        },
        {
            "bufferView" : 1,
            "componentType" : 5126,
            "count" : 1977,
            "type" : "VEC2"
        },
        {
            "bufferView" : 2,
            "componentType" : 5126,
            "count" : 1977,
            "type" : "VEC3"
        },
        {
            "bufferView" : 3,
            "componentType" : 5123,
            "count" : 11088,
            "type" : "SCALAR"
        }
    ],
    "bufferViews" : [
        {
            "buffer" : 0,
            "byteLength" : 23724,
            "byteOffset" : 0,
            "target" : 34962
        },
        {
            "buffer" : 0,
            "byteLength" : 15816,
            "byteOffset" : 23724,
            "target" : 34962
        },
        {
            "buffer" : 0,
            "byteLength" : 23724,
            "byteOffset" : 39540,
            "target" : 34962
        },
        {
            "buffer" : 0,
            "byteLength" : 22176,
            "byteOffset" : 63264,
            "target" : 34963
        }
    ],
    "buffers" : [
        {
            "byteLength" : 85440,
            "uri" : "data:application/octet-stream;base64,"
        }
    ]
}
